<?xml version="1.0" encoding="utf-8"?>
<svg viewBox="78.713 -4.308 186.321 182.013" xmlns="http://www.w3.org/2000/svg" xmlns:bx="https://boxy-svg.com">
  <path style="fill: rgb(177, 9, 9); stroke-width: 2px; stroke: rgb(255, 183, 39);" d="M 152.987 92.175 L 121.221 4.707 L 171.427 81.177 L 171.939 45.035 L 179.111 72.272 L 176.548 -4.197 L 185.259 73.32 L 198.068 50.798 L 199.604 81.7 L 238.539 31.94 L 206.265 90.603 L 264.664 79.605 L 199.604 104.224 L 218.556 111.033 L 197.042 109.985 L 242.124 164.98 L 190.895 116.27 C 190.895 116.27 191.918 166.551 191.409 166.551 C 190.898 166.551 179.625 118.363 179.625 118.363 L 151.96 149.268 L 170.912 109.461 L 80.238 141.933 L 157.083 104.746 L 127.881 98.986 L 152.987 92.175 Z"/>
  <path style="fill: rgb(255, 111, 0); stroke-width: 2px; stroke: rgb(169, 17, 17);" d="M 147.595 94.756 L 117.139 7.605 L 166.284 83.795 L 167.386 47.786 L 174.14 74.923 L 172.81 -1.268 L 180.294 75.967 L 193.512 53.528 L 194.553 84.316 L 234.44 34.741 L 201.092 93.187 L 259.886 82.228 L 194.187 106.757 L 213.104 113.541 L 191.522 112.498 L 235.877 167.293 L 185.253 118.759 C 185.253 118.759 185.463 168.859 184.95 168.859 C 184.439 168.859 173.906 120.847 173.906 120.847 L 145.64 151.639 L 165.31 111.978 L 73.776 144.332 L 151.506 107.279 L 122.292 101.537 L 147.595 94.756 Z" transform="matrix(0.912528, -0.409014, 0.409014, 0.912528, -19.68051, 75.566005)"/>
  <path style="paint-order: stroke; stroke: rgb(178, 20, 6); fill: rgb(255, 185, 8); stroke-width: 2px;" d="M 177.001 61.759 L 175.988 11.419 L 187.07 55.427 L 192.849 34.63 L 191.928 50.307 L 202.495 6.291 L 194.556 50.906 L 203.833 37.945 L 199.793 55.733 L 225.113 27.093 L 201.449 60.856 L 229.674 54.524 L 196.336 68.692 L 203.9 72.612 L 194.285 72.01 L 206.336 103.665 L 190.53 75.626 C 190.53 75.626 183.283 104.568 183.049 104.568 C 182.819 104.568 185.087 76.832 185.087 76.832 L 167.777 94.615 L 182.496 71.706 L 136.313 90.4 L 176.936 68.997 L 164.55 65.678 L 177.001 61.759 Z" transform="matrix(0.097162, -0.995269, 0.995269, 0.097162, 98.151547, 273.11144)" bx:origin="0.678 0.775"/>
  <path style="fill: rgb(242, 255, 0); stroke: rgb(173, 34, 34);" d="M 178.453 87.765 L 187.391 73.484 L 185.995 89.221 L 200.798 90.678 L 185.715 93.884 L 199.402 108.747 L 184.319 98.256 L 172.588 123.611 L 178.733 96.799 L 162.812 93.301 L 176.498 92.136 L 170.074 81.352 L 178.453 87.765 Z"/>
</svg>